<svg xmlns="http://www.w3.org/2000/svg" viewBox="0 15.800000190734863 45.650001525878906 46.52499771118164" data-asc="1.16" width="45.650001525878906" height="46.52499771118164"><defs/><g fill="#000000"><g transform="translate(0, 0)"><path d="M20.05 15.80L24.95 15.80L24.95 22.70L20.05 22.70L20.05 15.80M1.65 20.05L43.70 20.05L43.70 30.55L38.85 30.55L38.85 24.35L6.30 24.35L6.30 30.55L1.65 30.55L1.65 20.05M8.60 28.55L36.25 28.55L36.25 32.65L8.60 32.65L8.60 28.55M14.45 36.70L18.05 34.50Q21.45 36.95 23.58 39.97Q25.70 43.00 26.68 46.12Q27.65 49.25 27.63 52.10Q27.60 54.95 26.73 57.15Q25.85 59.35 24.30 60.45Q22.95 61.55 21.68 61.92Q20.40 62.30 18.55 62.30Q17.65 62.35 16.55 62.30Q15.45 62.25 14.25 62.20Q14.20 61.25 13.88 59.95Q13.55 58.65 12.90 57.65Q14.30 57.80 15.53 57.85Q16.75 57.90 17.65 57.90Q18.65 57.90 19.45 57.72Q20.25 57.55 20.95 56.90Q21.90 56.20 22.43 54.60Q22.95 53.00 22.83 50.82Q22.70 48.65 21.83 46.20Q20.95 43.75 19.15 41.30Q17.35 38.85 14.45 36.70M22.10 29.55L26.05 31.20Q23.45 33.80 19.75 35.95Q16.05 38.10 11.93 39.72Q7.80 41.35 3.80 42.50Q3.55 42.05 3.10 41.32Q2.65 40.60 2.17 39.90Q1.70 39.20 1.30 38.75Q5.20 37.90 9.15 36.55Q13.10 35.20 16.50 33.42Q19.90 31.65 22.10 29.55M18.45 39.25L21.50 41.40Q19.45 43.10 16.48 44.82Q13.50 46.55 10.28 48.05Q7.05 49.55 4.25 50.55Q3.85 49.75 3.15 48.70Q2.45 47.65 1.80 46.95Q3.90 46.40 6.23 45.55Q8.55 44.70 10.82 43.67Q13.10 42.65 15.08 41.52Q17.05 40.40 18.45 39.25M22.30 44.25L25.55 46.70Q23.55 48.60 20.85 50.55Q18.15 52.50 15.03 54.25Q11.90 56.00 8.70 57.45Q5.50 58.90 2.55 59.90Q2.10 59.05 1.40 57.90Q0.70 56.75 0 56.00Q3 55.20 6.17 53.95Q9.35 52.70 12.35 51.12Q15.35 49.55 17.93 47.77Q20.50 46.00 22.30 44.25M28.15 30.25Q29.50 35.65 31.82 40.42Q34.15 45.20 37.58 48.80Q41 52.40 45.65 54.35Q45.10 54.80 44.48 55.52Q43.85 56.25 43.27 57.02Q42.70 57.80 42.35 58.45Q37.50 56.05 33.98 52.02Q30.45 48.00 28.08 42.67Q25.70 37.35 24.20 31.05L28.15 30.25M39.65 33.75L43.35 36.90Q41.65 38.25 39.65 39.62Q37.65 41.00 35.65 42.22Q33.65 43.45 31.95 44.35L28.95 41.50Q30.60 40.55 32.57 39.22Q34.55 37.90 36.42 36.45Q38.30 35.00 39.65 33.75Z"/></g></g></svg>